<svg width="69" height="69" viewBox="0 0 480 480" fill="none" xmlns="http://www.w3.org/2000/svg">
<path d="M329.352 154.002C322.626 158.045 316.571 165.187 311.19 175.429C306.078 185.402 301.773 196.991 298.275 210.197C294.777 223.404 292.086 237.688 290.202 253.051C288.588 268.144 287.781 282.698 287.781 296.713C287.781 301.565 287.915 306.82 288.184 312.48C288.454 318.14 288.992 324.07 289.799 330.269C290.606 336.198 291.682 342.128 293.028 348.057C294.373 353.717 296.257 359.107 298.678 364.228C305.136 362.072 311.325 360.59 317.244 359.781C323.164 358.973 328.007 358.568 331.774 358.568C339.577 358.568 346.438 359.781 352.358 362.207C358.546 364.633 364.331 367.732 369.713 371.505C378.592 358.838 384.915 342.262 388.682 321.779C392.718 301.026 394.736 279.06 394.736 255.881C394.736 230.007 392.584 208.985 388.279 192.813C383.974 176.642 378.054 163.975 370.52 154.811C363.255 145.378 354.645 139.044 344.689 135.81C334.734 132.306 324.105 130.554 312.804 130.554C299.351 130.554 286.57 132.441 274.462 136.214C262.354 139.987 251.591 145.782 242.173 153.598C233.025 161.145 225.76 170.578 220.379 181.898C214.997 193.218 212.307 206.559 212.307 221.922C212.307 229.199 212.845 235.263 213.921 240.114C214.997 244.966 216.208 248.874 217.553 251.838C219.168 254.534 220.648 256.555 221.993 257.902C223.338 259.25 224.28 260.059 224.818 260.328C210.288 260.328 198.853 256.555 190.512 249.008C182.171 241.462 178 230.411 178 215.857C178 202.112 181.767 189.175 189.301 177.046C196.835 164.918 206.925 154.407 219.571 145.512C232.487 136.349 247.42 129.207 264.372 124.086C281.592 118.695 299.755 116 318.859 116C343.613 116 364.062 120.312 380.207 128.937C396.351 137.562 409.132 148.881 418.549 162.897C427.967 176.912 434.424 192.948 437.922 211.006C441.689 228.794 443.573 247.122 443.573 265.988C443.573 278.656 442.766 291.323 441.151 303.99C439.806 316.388 437.384 328.517 433.886 340.376C430.388 351.965 425.814 362.881 420.164 373.122C414.513 383.095 407.517 391.719 399.176 398.996C403.212 403.039 407.383 407.082 411.688 411.125C415.993 414.898 420.567 418.267 425.411 421.232C430.254 424.197 435.366 426.487 440.748 428.105C446.398 429.991 452.587 430.935 459.313 430.935C461.466 430.935 463.215 430.8 464.56 430.53C466.175 430.53 467.655 430.396 469 430.126C466.847 439.559 463.215 446.162 458.103 449.936C453.259 453.979 446.533 456 437.922 456C430.388 456 423.662 454.787 417.742 452.361C411.822 449.936 406.441 446.702 401.598 442.659C397.024 438.616 392.718 434.034 388.682 428.913C384.915 423.792 381.283 418.537 377.785 413.146C371.865 415.841 365.408 417.863 358.412 419.21C351.416 420.828 343.882 421.636 335.81 421.636C322.356 421.636 309.71 419.345 297.871 414.763C286.032 410.182 275.673 402.635 266.793 392.124C257.914 381.612 250.918 367.867 245.806 350.887C240.693 333.907 238.137 313.019 238.137 288.224C238.137 272.861 239.348 257.094 241.77 240.923C244.191 224.751 248.093 210.063 253.474 196.856C258.856 183.38 265.986 172.33 274.865 163.705C284.014 155.08 295.315 150.768 308.768 150.768C311.728 150.768 314.957 151.038 318.455 151.577C321.953 151.846 325.585 152.655 329.352 154.002ZM328.141 370.697C325.182 370.697 321.684 371.101 317.648 371.91C313.612 372.718 309.71 374.201 305.943 376.357C309.441 380.939 313.477 384.577 318.051 387.272C322.895 389.698 328.545 390.911 335.003 390.911C342.806 390.911 350.071 388.62 356.797 384.038C353.031 379.995 348.725 376.761 343.882 374.335C339.308 371.91 334.061 370.697 328.141 370.697Z" fill="#B769A1"/>
<path d="M227 284.198C220.138 311.205 207.47 331.832 188.996 346.077C170.522 360.026 148.749 367 123.677 367C89.6323 367 63.1088 353.497 44.1069 326.49C25.369 299.483 16 258.675 16 204.068C16 183.59 17.5835 162.816 20.7505 141.744C23.9174 120.673 29.4597 101.679 37.3771 84.7624C45.2946 67.5492 55.8512 53.4521 69.0469 42.4713C82.5066 31.4904 99.3971 26 119.719 26C129.747 26 139.248 27.4839 148.221 30.4517C157.195 33.4195 164.98 37.8712 171.578 43.8068C178.44 49.4456 183.85 56.5683 187.809 65.1749C191.767 73.7816 193.747 83.8721 193.747 95.4465C193.747 104.943 192.163 112.511 188.996 118.15C185.829 123.789 180.419 126.608 172.765 126.608C169.071 126.608 165.508 126.015 162.077 124.828C158.91 123.344 156.271 121.266 154.159 118.595C156.535 116.518 158.646 112.215 160.493 105.685C162.605 99.1562 163.66 91.7367 163.66 83.4269C163.66 69.1815 160.625 58.7942 154.555 52.265C148.485 45.4391 140.436 42.0261 130.407 42.0261C118.531 42.0261 108.238 46.4778 99.5291 55.3812C91.0838 63.9878 84.0901 75.5622 78.5478 90.1045C73.0056 104.647 68.9149 121.118 66.2758 139.518C63.9006 157.919 62.7129 176.913 62.7129 196.5C62.7129 220.836 64.5603 241.611 68.2552 258.824C71.95 276.037 77.3602 290.134 84.4859 301.115C91.6116 312.096 100.321 320.257 110.614 325.599C121.17 330.645 133.178 333.167 146.638 333.167C163.792 333.167 178.044 329.012 189.392 320.702C200.74 312.096 209.977 298.444 217.103 279.747L227 284.198Z" fill="#5584B4"/>
</svg>
